# xmcd CD database file
#
# Track frame offsets:
#	150
#	10256
#	23696
#	39056
#	54565
#	93643
#	110600
#	126797
#	146050
#	165652
#	177329
#	200405
#	221277
#	234906
#	243198
#	270821
#	291771
#
# Disc length: 4098 seconds
#
# Revision: 0
# Processed by: cddbd v1.5.1PL0 Copyright (c) Steve Scherf et al.
# Submitted via: CDex 1.60beta1
#
DISCID=de100011
DTITLE=Various Artist - Home Grown in Nashville
DYEAR=1900
DGENRE=Country
TTITLE0=Johnny Cash - Hey Porter
TTITLE1=Bada Bind - Absence Makes the Heart Go Wander
TTITLE2=Josh Rouse - Dressed Up Like Nebraska
TTITLE3=Martina McBride - Happy Girl
TTITLE4=Adam Charney - As We Say Good Bye
TTITLE5=Robinella and The CC String - Honey Honey Bee
TTITLE6=Saddlesong - Even Moses Got Lucky
TTITLE7=John Prine - Angel From Montgomery
TTITLE8=Fairfax - Suit Me Too
TTITLE9=Steve Earle - Guitar Town
TTITLE10=Porter Hall Tennessee - The Drunkard and The Angel
TTITLE11=Bela Fleck - Sinister Minister
TTITLE12=The Mavericks  - Something Stupid
TTITLE13=Dave Barnes - On a Night Like This
TTITLE14=Jennifer Jones - You'll Be Back for Me
TTITLE15=Matthew Perryman Jones - Letting Go
TTITLE16=Gillian Welch - Wayside - Back in Time
EXTD=
EXTT0=
EXTT1=
EXTT2=
EXTT3=
EXTT4=
EXTT5=
EXTT6=
EXTT7=
EXTT8=
EXTT9=
EXTT10=
EXTT11=
EXTT12=
EXTT13=
EXTT14=
EXTT15=
EXTT16=
PLAYORDER=
